<mxfile host="65bd71144e">
    <diagram id="oG7ebjWg1e0p80K9wdPC" name="Página-1">
        <mxGraphModel dx="1696" dy="421" grid="1" gridSize="10" guides="1" tooltips="1" connect="1" arrows="1" fold="1" page="1" pageScale="1" pageWidth="1600" pageHeight="900" math="0" shadow="0">
            <root>
                <mxCell id="0"/>
                <mxCell id="1" parent="0"/>
                <mxCell id="4" value="" style="edgeStyle=none;html=1;" parent="1" source="2" target="3" edge="1">
                    <mxGeometry relative="1" as="geometry"/>
                </mxCell>
                <mxCell id="2" value="Planet" style="rounded=1;whiteSpace=wrap;html=1;arcSize=37;" parent="1" vertex="1">
                    <mxGeometry x="320" y="10" width="120" height="60" as="geometry"/>
                </mxCell>
                <mxCell id="6" value="" style="edgeStyle=none;html=1;" parent="1" source="3" target="5" edge="1">
                    <mxGeometry relative="1" as="geometry"/>
                </mxCell>
                <mxCell id="3" value="Create" style="rounded=0;whiteSpace=wrap;html=1;" parent="1" vertex="1">
                    <mxGeometry x="320" y="120" width="120" height="60" as="geometry"/>
                </mxCell>
                <mxCell id="5" value="Dados válidos?" style="rhombus;whiteSpace=wrap;html=1;" parent="1" vertex="1">
                    <mxGeometry x="315" y="230" width="130" height="80" as="geometry"/>
                </mxCell>
                <mxCell id="7" value="Retorna 422" style="rounded=0;whiteSpace=wrap;html=1;" parent="1" vertex="1">
                    <mxGeometry x="120" y="240" width="120" height="60" as="geometry"/>
                </mxCell>
                <mxCell id="13" value="" style="endArrow=classic;html=1;exitX=0;exitY=0.5;exitDx=0;exitDy=0;entryX=1;entryY=0.5;entryDx=0;entryDy=0;" parent="1" source="5" target="7" edge="1">
                    <mxGeometry relative="1" as="geometry">
                        <mxPoint x="510" y="260" as="sourcePoint"/>
                        <mxPoint x="610" y="260" as="targetPoint"/>
                    </mxGeometry>
                </mxCell>
                <mxCell id="14" value="Não" style="edgeLabel;resizable=0;html=1;align=center;verticalAlign=middle;" parent="13" connectable="0" vertex="1">
                    <mxGeometry relative="1" as="geometry"/>
                </mxCell>
                <mxCell id="15" value="Planeta Existe?" style="rhombus;whiteSpace=wrap;html=1;" parent="1" vertex="1">
                    <mxGeometry x="320" y="370" width="120" height="80" as="geometry"/>
                </mxCell>
                <mxCell id="16" value="" style="endArrow=classic;html=1;exitX=0.5;exitY=1;exitDx=0;exitDy=0;entryX=0.5;entryY=0;entryDx=0;entryDy=0;" parent="1" source="5" target="15" edge="1">
                    <mxGeometry relative="1" as="geometry">
                        <mxPoint x="325" y="280" as="sourcePoint"/>
                        <mxPoint x="250" y="280" as="targetPoint"/>
                    </mxGeometry>
                </mxCell>
                <mxCell id="17" value="Sim" style="edgeLabel;resizable=0;html=1;align=center;verticalAlign=middle;" parent="16" connectable="0" vertex="1">
                    <mxGeometry relative="1" as="geometry"/>
                </mxCell>
                <mxCell id="18" value="Retorna 409" style="rounded=0;whiteSpace=wrap;html=1;" parent="1" vertex="1">
                    <mxGeometry x="120" y="380" width="120" height="60" as="geometry"/>
                </mxCell>
                <mxCell id="19" value="" style="endArrow=classic;html=1;exitX=0;exitY=0.5;exitDx=0;exitDy=0;entryX=1;entryY=0.5;entryDx=0;entryDy=0;" parent="1" source="15" target="18" edge="1">
                    <mxGeometry relative="1" as="geometry">
                        <mxPoint x="315" y="410" as="sourcePoint"/>
                        <mxPoint x="610" y="400" as="targetPoint"/>
                    </mxGeometry>
                </mxCell>
                <mxCell id="20" value="Sim" style="edgeLabel;resizable=0;html=1;align=center;verticalAlign=middle;" parent="19" connectable="0" vertex="1">
                    <mxGeometry relative="1" as="geometry"/>
                </mxCell>
                <mxCell id="21" value="" style="endArrow=classic;html=1;exitX=0.5;exitY=1;exitDx=0;exitDy=0;entryX=0.5;entryY=0;entryDx=0;entryDy=0;" parent="1" source="15" target="23" edge="1">
                    <mxGeometry relative="1" as="geometry">
                        <mxPoint x="379.71" y="460" as="sourcePoint"/>
                        <mxPoint x="380" y="510" as="targetPoint"/>
                    </mxGeometry>
                </mxCell>
                <mxCell id="22" value="Não" style="edgeLabel;resizable=0;html=1;align=center;verticalAlign=middle;" parent="21" connectable="0" vertex="1">
                    <mxGeometry relative="1" as="geometry"/>
                </mxCell>
                <mxCell id="23" value="" style="rounded=0;whiteSpace=wrap;html=1;" parent="1" vertex="1">
                    <mxGeometry x="320" y="510" width="120" height="60" as="geometry"/>
                </mxCell>
            </root>
        </mxGraphModel>
    </diagram>
</mxfile>